# xmcd CD database file
#
# Track frame offsets:
#	150
#	15566
#	45455
#	67421
#	92242
#	105815
#	139061
#	149464
#	173726
#	198823
#	212099
#	245617
#	267238
#	288919
#	315006
#
# Disc length: 4542 seconds
#
# Revision: 0
# Processed by: cddbd v1.4PL0 Copyright (c) Steve Scherf et al.
# Submitted via: CDex 1.50
#
DISCID=d011bc0f
DTITLE=Le petit Jazzband de Mr. Morel - Au petit Journal Saint Michel
DYEAR=2000
DGENRE=Jazz
TTITLE0=Scandinavian Stomp
TTITLE1=Sidewalk Blues
TTITLE2=Sweet Mumtaz
TTITLE3=Log Cabin Blues
TTITLE4=Original Tuxedo Rag
TTITLE5=Pacific Coast Blues
TTITLE6=Shae that Jelly Roll
TTITLE7=Bear Wallow Blues
TTITLE8=Bouncing Around
TTITLE9=Cole Smoak
TTITLE10=Egyptian Ella
TTITLE11=Ponchatrain Blues
TTITLE12=Pleasure Maid
TTITLE13=My Daddy rocks me
TTITLE14=Chushion Foot Stomp
EXTD=YEAR: 2000
EXTT0=
EXTT1=
EXTT2=
EXTT3=
EXTT4=
EXTT5=
EXTT6=
EXTT7=
EXTT8=
EXTT9=
EXTT10=
EXTT11=
EXTT12=
EXTT13=
EXTT14=
PLAYORDER=
